<svg t="1725126329097" class="icon" viewBox="0 0 1024 1024" version="1.1" xmlns="http://www.w3.org/2000/svg" p-id="1008" width="200" height="200"><path d="M53.333333 42.666667h853.333334v149.333333h-853.333334V42.666667z" fill="#FFFFFF" p-id="1009"></path><path d="M928 213.333333h-896V21.333333h896v192z m-853.333333-42.666666h810.666666V64h-810.666666v106.666667z" p-id="1010"></path><path d="M53.333333 189.866667h853.333334V874.666667h-853.333334V189.866667z" fill="#3399FF" p-id="1011"></path><path d="M928 896h-896V168.533333h896V896z m-853.333333-42.666667h810.666666V211.2h-810.666666V853.333333z" p-id="1012"></path><path d="M160 315.733333h426.666667V448h-426.666667v-132.266667z" fill="#FFBF80" p-id="1013"></path><path d="M608 471.466667h-469.333333v-174.933334h469.333333v174.933334z m-426.666667-42.666667h384v-89.6h-384v89.6z" p-id="1014"></path><path d="M160 550.4h277.333333v136.533333h-277.333333v-136.533333z" fill="#FFBF80" p-id="1015"></path><path d="M458.666667 708.266667h-320v-179.2h320v179.2z m-277.333334-42.666667h234.666667v-93.866667h-234.666667v93.866667z" p-id="1016"></path><path d="M757.333333 979.2l-215.466666-117.333333v-234.666667L757.333333 512l215.466667 117.333333v234.666667l-215.466667 115.2z m0-317.866667c-46.933333 0-85.333333 38.4-85.333333 85.333334s38.4 85.333333 85.333333 85.333333 85.333333-38.4 85.333334-85.333333-38.4-85.333333-85.333334-85.333334z" fill="#FFFFFF" p-id="1017"></path><path d="M757.333333 1002.666667l-236.8-128V616.533333l236.8-128 236.8 128V874.666667l-236.8 128z m-194.133333-153.6l194.133333 104.533333 194.133334-104.533333V640l-194.133334-104.533333-194.133333 104.533333v209.066667z m194.133333 4.266666c-59.733333 0-106.666667-46.933333-106.666666-106.666666s46.933333-106.666667 106.666666-106.666667 106.666667 46.933333 106.666667 106.666667-49.066667 106.666667-106.666667 106.666666z m0-170.666666c-36.266667 0-64 27.733333-64 64s27.733333 64 64 64 64-27.733333 64-64-29.866667-64-64-64z" p-id="1018"></path></svg>