<svg t="1725226063351" class="icon" viewBox="0 0 1024 1024" version="1.1" xmlns="http://www.w3.org/2000/svg" p-id="44653" width="200" height="200"><path d="M510.920649 498.162162L956.499027 761.081081 510.920649 1024 70.877405 761.081081z" fill="#CADDFE" p-id="44654"></path><path d="M510.920649 359.783784L956.499027 622.702703 510.920649 885.621622 70.877405 622.702703z" fill="#449EFE" p-id="44655"></path><path d="M508.153081 509.232432l2.767568 246.313514-426.205406-249.081081V262.918919z" fill="#FFFFFF" p-id="44656"></path><path d="M505.385514 509.232432v246.313514l442.81081-254.616216-2.767567-243.545946z" fill="#FFFFFF" p-id="44657"></path><path d="M510.920649 16.605405L98.553081 262.918919l412.367568 246.313513L928.823351 262.918919 510.920649 16.605405z" fill="#FFFFFF" p-id="44658"></path><path d="M510.920649 525.837838L70.877405 262.918919 510.920649 0 956.499027 262.918919 510.920649 525.837838zM126.228757 262.918919l387.459459 229.708108 387.45946-229.708108-390.227027-229.708108L126.228757 262.918919z" fill="#333333" p-id="44659"></path><path d="M70.877405 262.918919h27.675676v249.081081H70.877405zM926.055784 262.918919h27.675675v249.081081h-27.675675z" fill="#333333" p-id="44660"></path><path d="M495.892757 737.639784l441.288648-248.555243 13.588757 24.077837-441.288648 248.610595z" fill="#333333" p-id="44661"></path><path d="M67.500973 511.944649l13.561081-24.13319 441.427027 248.333838-13.561081 24.133189z" fill="#333333" p-id="44662"></path><path d="M546.899027 116.237838l116.237838 69.189189c11.07027 5.535135 11.07027 16.605405 0 22.140541l-38.745946 22.14054c-5.535135 2.767568-11.07027 5.535135-19.372973 5.535135s-13.837838-2.767568-19.372973-5.535135l-116.237838-69.189189c-11.07027-5.535135-11.07027-16.605405 0-22.140541l38.745946-22.14054c11.07027-8.302703 27.675676-8.302703 38.745946 0z m235.243243 135.610811c11.07027 5.535135 11.07027 16.605405 0 22.14054l-138.378378 80.25946c-11.07027 5.535135-27.675676 5.535135-38.745946 0l-58.118919-33.210811c-11.07027-5.535135-11.07027-16.605405 0-22.140541l138.378378-80.259459c11.07027-5.535135 27.675676-5.535135 38.745946 0l58.118919 33.210811z m-273.989189-44.281081c11.07027 5.535135 11.07027 16.605405 0 22.14054l-138.378378 80.25946c-11.07027 5.535135-27.675676 5.535135-38.745946 0L272.909838 276.756757c-11.07027-5.535135-11.07027-16.605405 0-22.140541l138.378378-80.259459c11.07027-5.535135 27.675676-5.535135 38.745946 0l58.118919 33.210811z m-38.745946 88.562162l116.237838 69.189189c5.535135 2.767568 8.302703 8.302703 8.302703 11.07027 0 5.535135-2.767568 8.302703-8.302703 11.07027l-38.745946 22.140541c-11.07027 5.535135-27.675676 5.535135-38.745946 0l-116.237838-69.189189c-11.07027-5.535135-11.07027-16.605405 0-22.140541l38.745946-22.14054c5.535135-2.767568 11.07027-5.535135 19.372973-5.535135 5.535135 2.767568 13.837838 2.767568 19.372973 5.535135z" fill="#007BFC" p-id="44663"></path></svg>