<svg xmlns="http://www.w3.org/2000/svg" width="256" height="256" viewBox="0 0 24 24"><path fill="#e11d48" d="M20.597 7.482L24 16.518h-2.51l-.58-1.618h-3.246l.694-1.754h2.002l-.95-2.66zm-8.111 0l1.772 5.84l2.492-5.84h2.415l-3.643 9.036H13.14l-1.64-5.237l-1.72 5.237H7.404L6.17 14.402l1.214-3.742l1.342 2.661l1.903-5.839zm-8.746 0q1.596 0 2.424.917a3 3 0 0 1 .28.368L5.37 12.08l-.385 1.185q-.528.15-1.204.151H2.293v3.102H0V7.482zm-.58 1.753h-.866v2.428h.86q.836 0 1.148-.358q.285-.323.284-.873q0-.546-.323-.871q-.324-.326-1.103-.326"/></svg>